<svg width="28" height="28" viewBox="0 0 28 28" fill="none" xmlns="http://www.w3.org/2000/svg">
<path fill-rule="evenodd" clip-rule="evenodd" d="M2.0814 4.09673C2.0814 2.9837 2.9837 2.0814 4.09673 2.0814C5.20977 2.0814 6.11206 2.9837 6.11206 4.09673C6.11206 5.20977 5.20977 6.11206 4.09673 6.11206C2.9837 6.11206 2.0814 5.20977 2.0814 4.09673ZM4.09673 0C1.83417 0 0 1.83417 0 4.09673C0 6.00062 1.29873 7.60117 3.05859 8.06078V19.6923C1.29873 20.1519 0 21.7524 0 23.6563C0 25.9189 1.83417 27.753 4.09673 27.753C6.00018 27.753 7.60042 26.4549 8.06046 24.6957H19.6916C20.1516 26.4549 21.7519 27.753 23.6553 27.753C25.9179 27.753 27.7521 25.9189 27.7521 23.6563C27.7521 21.7543 26.4559 20.155 24.6986 19.6936V8.05944C26.4559 7.59806 27.7521 5.99877 27.7521 4.09673C27.7521 1.83417 25.9179 0 23.6553 0C21.7525 0 20.1527 1.29729 19.692 3.05566H8.06002C7.59939 1.29729 5.99956 0 4.09673 0ZM8.05976 22.6143H19.6923C20.0664 21.1878 21.1902 20.0649 22.6172 19.6923V8.06078C21.1896 7.68795 20.0655 6.56434 19.6919 5.13707H8.06021C7.68705 6.56263 6.56515 7.68526 5.14 8.05944V19.6936C6.56458 20.0676 7.68615 21.1895 8.05976 22.6143ZM23.6553 2.0814C22.5423 2.0814 21.64 2.9837 21.64 4.09673C21.64 5.20977 22.5423 6.11206 23.6553 6.11206C24.7684 6.11206 25.6707 5.20977 25.6707 4.09673C25.6707 2.9837 24.7684 2.0814 23.6553 2.0814ZM23.6553 21.641C22.5423 21.641 21.64 22.5433 21.64 23.6563C21.64 24.7693 22.5423 25.6716 23.6553 25.6716C24.7684 25.6716 25.6707 24.7693 25.6707 23.6563C25.6707 22.5433 24.7684 21.641 23.6553 21.641ZM2.0814 23.6563C2.0814 22.5433 2.9837 21.641 4.09673 21.641C5.20977 21.641 6.11206 22.5433 6.11206 23.6563C6.11206 24.7693 5.20977 25.6716 4.09673 25.6716C2.9837 25.6716 2.0814 24.7693 2.0814 23.6563Z" fill="url(#paint0_linear_89_1178)"/>
<defs>
<linearGradient id="paint0_linear_89_1178" x1="44.2953" y1="38.4492" x2="-9.18998" y2="27.4524" gradientUnits="userSpaceOnUse">
<stop stop-color="#9DFDB0"/>
<stop offset="1" stop-color="#12CEF5"/>
</linearGradient>
</defs>
</svg>
