<svg width="32" height="32" viewBox="0 0 32 32" fill="none" xmlns="http://www.w3.org/2000/svg">
<path fill-rule="evenodd" clip-rule="evenodd" d="M9.56598 7.56937C10.0726 8.07599 10.0726 8.8974 9.56598 9.40402L3.13195 15.838L9.56598 22.2721C10.0726 22.7787 10.0726 23.6001 9.56598 24.1067C9.05935 24.6134 8.23795 24.6134 7.73132 24.1067L0.37997 16.7554C-0.126657 16.2487 -0.126657 15.4273 0.37997 14.9207L7.73132 7.56937C8.23795 7.06274 9.05935 7.06274 9.56598 7.56937ZM22.434 7.56937C22.9406 7.06274 23.7621 7.06274 24.2687 7.56937L31.62 14.9207C32.1267 15.4273 32.1267 16.2487 31.62 16.7554L24.2687 24.1067C23.7621 24.6134 22.9406 24.6134 22.434 24.1067C21.9274 23.6001 21.9274 22.7787 22.434 22.2721L28.868 15.838L22.434 9.40402C21.9274 8.8974 21.9274 8.07599 22.434 7.56937Z" fill="url(#paint0_linear_89_973)"/>
<path fill-rule="evenodd" clip-rule="evenodd" d="M18.3826 2.01907C19.0886 2.14081 19.5623 2.81187 19.4406 3.51793L15.1163 28.599C14.9945 29.3051 14.3235 29.7788 13.6174 29.657C12.9114 29.5353 12.4377 28.8642 12.5594 28.1582L16.8837 3.07709C17.0055 2.37103 17.6765 1.89734 18.3826 2.01907Z" fill="url(#paint1_linear_89_973)"/>
<defs>
<linearGradient id="paint0_linear_89_973" x1="51.0754" y1="40.3426" x2="-9.76516" y2="25.8786" gradientUnits="userSpaceOnUse">
<stop stop-color="#9DFDB0"/>
<stop offset="1" stop-color="#12CEF5"/>
</linearGradient>
<linearGradient id="paint1_linear_89_973" x1="51.0754" y1="40.3426" x2="-9.76516" y2="25.8786" gradientUnits="userSpaceOnUse">
<stop stop-color="#9DFDB0"/>
<stop offset="1" stop-color="#12CEF5"/>
</linearGradient>
</defs>
</svg>
