<svg width="46" height="46" viewBox="0 0 46 46" fill="none" xmlns="http://www.w3.org/2000/svg">
<circle cx="23" cy="23" r="23" fill="white" fill-opacity="0.1"/>
<g opacity="0.5">
<path fill-rule="evenodd" clip-rule="evenodd" d="M27.5 23C29.9853 23 32 20.9853 32 18.5C32 18.0178 31.9242 17.5534 31.7838 17.1179C31.6792 16.7937 31.2734 16.7268 31.0325 16.9677L28.3402 19.66C28.2098 19.7904 28.0168 19.8416 27.8466 19.7707C27.1172 19.467 26.5334 18.8835 26.2292 18.1543C26.1582 17.984 26.2094 17.7909 26.3398 17.6604L29.0327 14.9676C29.2735 14.7267 29.2067 14.3209 28.8825 14.2164C28.4469 14.0759 27.9823 14 27.5 14C25.0147 14 23 16.0147 23 18.5C23 18.5978 23.0031 18.6949 23.0093 18.7912C23.065 19.6642 22.8817 20.5986 22.2097 21.1586L14.9802 27.1832C14.3591 27.7008 14 28.4674 14 29.2759C14 30.7804 15.2196 32 16.7241 32C17.5326 32 18.2992 31.6409 18.8168 31.0198L24.8414 23.7903C25.4014 23.1183 26.3358 22.935 27.2088 22.9907C27.3051 22.9969 27.4022 23 27.5 23ZM18 29C18 29.5523 17.5523 30 17 30C16.4477 30 16 29.5523 16 29C16 28.4477 16.4477 28 17 28C17.5523 28 18 28.4477 18 29Z" fill="white"/>
<path d="M27.5 24.5C27.6731 24.5 27.8445 24.4927 28.0138 24.4783L31.7678 28.2323C32.7441 29.2086 32.7441 30.7915 31.7678 31.7678C30.7915 32.7441 29.2086 32.7441 28.2323 31.7678L23.8216 27.3571L25.9938 24.7505C26.0455 24.6885 26.1413 24.6131 26.3357 24.5552C26.5378 24.4951 26.805 24.468 27.1132 24.4877C27.2413 24.4959 27.3702 24.5 27.5 24.5Z" fill="white"/>
<path d="M19 17.5858L21.3306 19.9163C21.3027 19.9563 21.275 19.985 21.2495 20.0062L19.7999 21.2142L17.5858 19H16.309C16.1197 19 15.9465 18.893 15.8618 18.7236L14.1612 15.3224C14.065 15.1299 14.1027 14.8974 14.2549 14.7452L14.7452 14.2549C14.8974 14.1027 15.1299 14.065 15.3224 14.1612L18.7236 15.8618C18.893 15.9465 19 16.1197 19 16.309V17.5858Z" fill="white"/>
</g>
</svg>
