<svg width="30" height="28" viewBox="0 0 30 28" fill="none" xmlns="http://www.w3.org/2000/svg">
<path d="M13.9718 1.70846C14.4382 0.933481 15.5618 0.933481 16.0282 1.70847L19.6753 7.76867C19.8428 8.04708 20.1161 8.24565 20.4327 8.31896L27.3233 9.91484C28.2045 10.1189 28.5517 11.1875 27.9587 11.8705L23.3221 17.2118C23.1091 17.4572 23.0047 17.7785 23.0328 18.1022L23.6444 25.1487C23.7226 26.0498 22.8136 26.7103 21.9808 26.3574L15.4681 23.5983C15.1689 23.4716 14.8311 23.4716 14.5319 23.5983L8.01924 26.3574C7.18639 26.7103 6.27742 26.0498 6.35562 25.1487L6.96717 18.1022C6.99526 17.7785 6.89087 17.4572 6.67786 17.2118L2.04128 11.8705C1.44835 11.1875 1.79554 10.1189 2.67672 9.91484L9.56733 8.31896C9.88389 8.24565 10.1572 8.04708 10.3247 7.76867L13.9718 1.70846Z" stroke="url(#paint0_linear_89_1169)" stroke-width="1.8"/>
<defs>
<linearGradient id="paint0_linear_89_1169" x1="47.8832" y1="41.5622" x2="-9.93421" y2="29.6742" gradientUnits="userSpaceOnUse">
<stop stop-color="#9DFDB0"/>
<stop offset="1" stop-color="#12CEF5"/>
</linearGradient>
</defs>
</svg>
