<svg width="25" height="32" viewBox="0 0 25 32" fill="none" xmlns="http://www.w3.org/2000/svg">
<path fill-rule="evenodd" clip-rule="evenodd" d="M7.73291 5.94013C7.90542 5.49328 8 5.00769 8 4.5C8 2.29086 6.20914 0.5 4 0.5C1.79086 0.5 0 2.29086 0 4.5C0 6.2962 1.18393 7.81589 2.814 8.32125C2.80529 8.37956 2.80078 8.43925 2.80078 8.49999V23.5C2.80078 23.5607 2.8053 23.6204 2.81401 23.6788C1.18393 24.1841 0 25.7038 0 27.5C0 29.7091 1.79086 31.5 4 31.5C6.20914 31.5 8 29.7091 8 27.5C8 25.7043 6.81679 24.185 5.18749 23.6792C5.19624 23.6207 5.20078 23.5609 5.20078 23.5V8.49999C5.20078 8.43909 5.19624 8.37925 5.18749 8.32079C5.56403 8.20389 5.91674 8.03286 6.23653 7.8168C7.7443 8.98685 9.43432 10.2017 10.9046 11.0419C12.551 11.9827 14.881 12.842 17 13.5062C17.0034 15.7125 18.7929 17.5 21 17.5C23.2091 17.5 25 15.7091 25 13.5C25 11.2909 23.2091 9.5 21 9.5C19.6402 9.5 18.4389 10.1785 17.7162 11.2154C15.7168 10.589 13.559 9.79446 12.0954 8.95811C10.7478 8.18807 9.16439 7.05015 7.73291 5.94013ZM4.50846 6.43479C5.30298 6.22656 5.90463 5.54189 5.98967 4.70449C5.99474 4.65465 5.99797 4.60427 5.9993 4.55341C5.99977 4.53567 6 4.51786 6 4.5C6 3.39543 5.10457 2.5 4 2.5C2.89543 2.5 2 3.39543 2 4.5C2 5.60457 2.89543 6.5 4 6.5C4.1757 6.5 4.3461 6.47734 4.50846 6.43479ZM4 29.5C5.10457 29.5 6 28.6046 6 27.5C6 26.3954 5.10457 25.5 4 25.5C2.89543 25.5 2 26.3954 2 27.5C2 28.6046 2.89543 29.5 4 29.5ZM21 15.5C20.1135 15.5 19.3617 14.9232 19.0994 14.1244C19.0349 13.9279 19 13.718 19 13.5C19 12.8136 19.3457 12.208 19.8726 11.8478C20.1936 11.6284 20.5818 11.5 21 11.5C22.1046 11.5 23 12.3954 23 13.5C23 14.6046 22.1046 15.5 21 15.5Z" fill="url(#paint0_linear_89_976)"/>
<defs>
<linearGradient id="paint0_linear_89_976" x1="39.9027" y1="43.4476" x2="-8.97163" y2="35.3434" gradientUnits="userSpaceOnUse">
<stop stop-color="#9DFDB0"/>
<stop offset="1" stop-color="#12CEF5"/>
</linearGradient>
</defs>
</svg>
