<svg width="25" height="32" viewBox="0 0 25 32" fill="none" xmlns="http://www.w3.org/2000/svg">
<path fill-rule="evenodd" clip-rule="evenodd" d="M12.3173 5.14508C11.8942 5.56764 11.8942 6.25275 12.3173 6.67532L16.6506 11.0035C17.0737 11.426 17.7596 11.426 18.1827 11.0035C18.6058 10.5809 18.6058 9.8958 18.1827 9.47324L15.7498 7.04329C16.601 7.07594 17.4481 7.12416 18.2908 7.18765C20.6228 7.36334 22.4618 9.20014 22.6377 11.5293C22.7673 13.2459 22.8333 14.9805 22.8333 16.7306C22.8333 18.4807 22.7673 20.2153 22.6377 21.9319C22.5227 23.4541 21.6974 24.766 20.4885 25.5413C19.8029 24.323 18.4976 23.5 17 23.5C14.7909 23.5 13 25.2909 13 27.5C13 29.7091 14.7909 31.5 17 31.5C19.1288 31.5 20.8692 29.837 20.993 27.7392C23.1162 26.6905 24.6102 24.5836 24.7982 22.0946C24.9319 20.3239 25 18.5351 25 16.7306C25 14.9261 24.9319 13.1373 24.7982 11.3665C24.5417 7.97057 21.8538 5.28586 18.4538 5.0297C17.525 4.95972 16.5912 4.90775 15.6527 4.87412L18.1827 2.34716C18.6058 1.92459 18.6058 1.23949 18.1827 0.816922C17.7596 0.394359 17.0737 0.394359 16.6506 0.816922L12.3173 5.14508ZM17 25.5C17.6297 25.5 18.1914 25.791 18.558 26.2459C18.8345 26.5889 19 27.0251 19 27.5C19 27.8231 18.9234 28.1282 18.7874 28.3983C18.4583 29.0517 17.7815 29.5 17 29.5C15.8954 29.5 15 28.6046 15 27.5C15 26.3954 15.8954 25.5 17 25.5ZM5.18749 8.32079C6.81679 7.81496 8 6.29566 8 4.5C8 2.29086 6.20914 0.5 4 0.5C1.79086 0.5 0 2.29086 0 4.5C0 6.2962 1.18393 7.81589 2.814 8.32125C2.80529 8.37956 2.80078 8.43925 2.80078 8.49999V23.5C2.80078 23.5607 2.8053 23.6204 2.81401 23.6788C1.18393 24.1841 0 25.7038 0 27.5C0 29.7091 1.79086 31.5 4 31.5C6.20914 31.5 8 29.7091 8 27.5C8 25.7043 6.81679 24.185 5.18749 23.6792C5.19624 23.6207 5.20078 23.5609 5.20078 23.5V8.49999C5.20078 8.43909 5.19624 8.37925 5.18749 8.32079ZM6 4.5C6 5.60457 5.10457 6.5 4 6.5C2.89543 6.5 2 5.60457 2 4.5C2 3.39543 2.89543 2.5 4 2.5C5.10457 2.5 6 3.39543 6 4.5ZM4 29.5C5.10457 29.5 6 28.6046 6 27.5C6 26.3954 5.10457 25.5 4 25.5C2.89543 25.5 2 26.3954 2 27.5C2 28.6046 2.89543 29.5 4 29.5Z" fill="url(#paint0_linear_89_994)"/>
<defs>
<linearGradient id="paint0_linear_89_994" x1="39.9027" y1="43.4476" x2="-8.97163" y2="35.3434" gradientUnits="userSpaceOnUse">
<stop stop-color="#9DFDB0"/>
<stop offset="1" stop-color="#12CEF5"/>
</linearGradient>
</defs>
</svg>
