<svg width="26" height="5" viewBox="0 0 26 5" fill="none" xmlns="http://www.w3.org/2000/svg">
<path fill-rule="evenodd" clip-rule="evenodd" d="M5.5 2.5C5.5 3.88071 4.38071 5 3 5C1.61929 5 0.5 3.88071 0.5 2.5C0.5 1.11929 1.61929 0 3 0C4.38071 0 5.5 1.11929 5.5 2.5ZM15.5 2.5C15.5 3.88071 14.3807 5 13 5C11.6193 5 10.5 3.88071 10.5 2.5C10.5 1.11929 11.6193 0 13 0C14.3807 0 15.5 1.11929 15.5 2.5ZM23 5C24.3807 5 25.5 3.88071 25.5 2.5C25.5 1.11929 24.3807 0 23 0C21.6193 0 20.5 1.11929 20.5 2.5C20.5 3.88071 21.6193 5 23 5Z" fill="url(#paint0_linear_89_1191)"/>
<defs>
<linearGradient id="paint0_linear_89_1191" x1="40.4027" y1="6.92703" x2="15.9883" y2="-18.1724" gradientUnits="userSpaceOnUse">
<stop stop-color="#9DFDB0"/>
<stop offset="1" stop-color="#12CEF5"/>
</linearGradient>
</defs>
</svg>
